#!OML:ASF F:\VICON\USERDATA\Patient Classification 1\PLAYGROUND\JustinFriday\JustinFriday.ASF
:FULLY-SPECIFIED
:DEGREES
4537
root 28.6536 28.0646 -3.98731 -38.2996 -9.19783 -7.65193
lowerback 38.3974 -0.183767 2.88231
upperback 17.1521 0.533489 -0.768022
thorax 0.0813743 0.400657 -2.47235
lowerneck 20.0422 -10.0074 -20.0193
upperneck 4.34099 -17.1925 7.35712
head 0.591648 -9.06101 5.81748
rclavicle -5.96354e-015 -1.59028e-015
rhumerus 48.1293 -23.3197 -63.5012
rradius 112.773
rwrist 5.45617
rhand -28.3022 -32.2456
rfingers 7.12502
rthumb -1.67776 -62.2188
lclavicle -5.96354e-015 -1.59028e-015
lhumerus 42.6326 44.1216 35.6917
lradius 95.5637
lwrist 26.2368
lhand -24.3609 -4.08408
lfingers 7.12502
lthumb 2.12877 25.885
rfemur -30.7375 -9.66398 30.3868
rtibia 54.7578
rfoot 7.25175 -17.8895
rtoes 11.529
lfemur -34.518 7.4483 -0.479819
ltibia 48.0341
lfoot 8.34849 -1.18887
ltoes 5.55236
4538
root 28.6542 28.0649 -3.99225 -38.1287 -9.3199 -7.99136
lowerback 38.6746 -0.358717 2.92213
upperback 16.5642 0.351886 -0.588646
thorax -0.507063 0.284562 -2.24078
lowerneck 20.1251 -9.62788 -20.942
upperneck 5.36429 -16.9065 7.13427
head 0.917036 -8.97662 5.84059
rclavicle -5.56597e-015 -1.90833e-014
rhumerus 47.828 -22.5876 -64.662
rradius 113.163
rwrist 5.46417
rhand -27.5038 -32.1223
rfingers 7.12502
rthumb -0.906694 -62.1001
lclavicle -5.56597e-015 -1.90833e-014
lhumerus 41.3168 44.2424 35.0788
lradius 95.0824
lwrist 28.4427
lhand -23.5099 -4.45992
lfingers 7.12502
lthumb 2.95071 25.4994
rfemur -30.8754 -9.67797 30.8038
rtibia 55.5902
rfoot 7.76298 -18.052
rtoes 10.6096
lfemur -34.8727 7.52424 -0.198808
ltibia 48.0131
lfoot 8.34132 -1.1308
ltoes 6.8695
4539
root 28.6571 28.0358 -3.97145 -37.7901 -9.70027 -8.52157
lowerback 38.6433 -0.4915 3.38564
upperback 16.3213 0.354711 -0.453862
thorax -0.757813 0.297863 -2.33955
lowerneck 22.799 -9.02188 -20.9234
upperneck 2.85804 -16.6506 7.85148
head -0.210034 -8.78713 6.33716
rclavicle -1.15295e-014 -2.22639e-014
rhumerus 47.6957 -22.5577 -65.2438
rradius 113.174
rwrist 5.62292
rhand -26.6916 -32.4385
rfingers 7.12502
rthumb -0.122229 -62.4182
lclavicle -1.15295e-014 -2.22639e-014
lhumerus 40.9891 44.4525 35.1111
lradius 94.749
lwrist 30.869
lhand -21.4663 -4.12013
lfingers 7.12502
lthumb 4.92416 25.8026
rfemur -31.2584 -9.59606 31.5913
rtibia 56.5843
rfoot 7.68621 -18.5549
rtoes 12.9352
lfemur -35.5116 7.80468 0.452715
ltibia 48.1937
lfoot 8.42804 -1.2624
ltoes 7.29082
4540
root 28.6564 28.0339 -3.97737 -37.6237 -9.87591 -8.86037
lowerback 38.4218 -0.587958 3.7518
upperback 16.5449 0.345322 -0.487291
thorax -0.435019 0.323945 -2.56034
lowerneck 22.1401 -9.25695 -20.6887
upperneck 3.25068 -16.7683 7.71571
head -0.0110411 -8.84798 6.20469
rclavicle 1.82882e-014 -2.38542e-014
rhumerus 48.0615 -23.0051 -65.7973
rradius 113.068
rwrist 5.65859
rhand -26.1776 -32.7478
rfingers 7.12502
rthumb 0.374215 -62.7272
lclavicle 1.82882e-014 -2.38542e-014
lhumerus 41.589 44.9214 35.6824
lradius 94.2873
lwrist 33.0628
lhand -19.2655 -4.05651
lfingers 7.12502
lthumb 7.04886 25.8061
rfemur -31.369 -9.71605 32.0582
rtibia 57.5116
rfoot 7.12811 -19.1339
rtoes 14.9628
lfemur -35.8553 7.91122 0.811794
ltibia 48.2986
lfoot 8.54711 -1.52276
ltoes 6.55749
4541
root 28.6534 28.0638 -4.00894 -37.58 -9.84127 -8.99878
lowerback 38.1541 -0.660088 3.90662
upperback 16.8581 0.287264 -0.566979
thorax -0.161584 0.317809 -2.71468
lowerneck 22.0652 -9.30731 -20.5531
upperneck 3.09111 -16.785 7.77722
head -0.0540675 -8.84819 6.20758
rclavicle 2.8625e-014 7.95139e-015
rhumerus 48.1732 -23.3894 -66.177
rradius 113.04
rwrist 5.41639
rhand -25.9236 -32.8854
rfingers 7.12502
rthumb 0.619489 -62.8642
lclavicle 2.8625e-014 7.95139e-015
lhumerus 42.129 45.1911 36.2004
lradius 93.9185
lwrist 35.2337
lhand -17.2546 -3.96107
lfingers 7.12502
lthumb 8.98968 25.8274
rfemur -31.2938 -9.92893 32.1848
rtibia 58.3774
rfoot 6.68855 -19.6616
rtoes 16.2769
lfemur -35.9041 7.8052 0.865387
ltibia 48.3093
lfoot 8.63488 -1.69498
ltoes 6.5501
4542
root 28.6544 28.0706 -4.01755 -37.5166 -9.91115 -9.13602
lowerback 38.1915 -0.725548 4.14157
upperback 16.9 0.282677 -0.64683
thorax -0.12285 0.336487 -2.9187
lowerneck 21.9722 -9.36104 -20.5923
upperneck 3.29223 -16.8434 7.83279
head 0.0371728 -8.88898 6.2142
rclavicle 7.15625e-015 -1.43125e-014
rhumerus 48.0457 -23.602 -66.5614
rradius 113.285
rwrist 5.25673
rhand -25.7353 -33.2751
rfingers 7.12502
rthumb 0.801444 -63.2534
lclavicle 7.15625e-015 -1.43125e-014
lhumerus 42.3428 45.1968 36.3942
lradius 93.6864
lwrist 38.0241
lhand -15.6666 -4.47192
lfingers 7.12502
lthumb 10.5217 25.2447
rfemur -31.3192 -10.0859 32.3642
rtibia 59.3353
rfoot 6.30985 -20.0901
rtoes 18.5387
lfemur -35.9912 7.7908 0.99745
ltibia 48.3366
lfoot 8.77704 -1.95109
ltoes 6.45038
4543
root 28.6541 28.0784 -4.03145 -37.5072 -9.9581 -9.256
lowerback 38.3206 -0.779397 4.3236
upperback 16.9272 0.279057 -0.727304
thorax -0.129211 0.351195 -3.09586
lowerneck 22.8224 -9.17812 -20.6991
upperneck 2.59123 -16.7883 8.35424
head -0.253992 -8.86522 6.47417
rclavicle -9.14409e-015 2.06736e-014
rhumerus 47.8888 -23.7264 -66.8147
rradius 113.361
rwrist 4.95894
rhand -25.5556 -33.6422
rfingers 7.12502
rthumb 0.974977 -63.6197
lclavicle -9.14409e-015 2.06736e-014
lhumerus 42.3137 45.114 36.2677
lradius 93.3497
lwrist 41.1883
lhand -14.6443 -6.39793
lfingers 7.12502
lthumb 11.5078 23.2662
rfemur -31.3111 -10.2719 32.5045
rtibia 60.3289
rfoot 5.67059 -20.5482
rtoes 21.3661
lfemur -36.0189 7.79465 1.09603
ltibia 48.3821
lfoot 8.89278 -2.56734
ltoes 4.24212
4544
root 28.6522 28.0882 -4.04682 -37.5678 -9.82517 -9.23357
lowerback 38.5552 -0.783206 4.24207
upperback 16.852 0.25799 -0.794536
thorax -0.133166 0.338899 -3.10758
lowerneck 26.195 -8.47755 -20.6963
upperneck -1.05541 -16.4752 9.75862
head -1.78048 -8.65804 7.30044
rclavicle 1.78906e-014 -4.77083e-015
rhumerus 47.4096 -23.9401 -65.6791
rradius 112.865
rwrist 3.99637
rhand -26.2988 -33.937
rfingers 7.12502
rthumb 0.257172 -63.9166
lclavicle 1.78906e-014 -4.77083e-015
lhumerus 42.2136 45.0359 36.1121
lradius 93.1381
lwrist 44.089
lhand -13.6517 -7.73449
lfingers 7.12502
lthumb 12.4649 21.8738
rfemur -31.3193 -10.4961 32.3928
rtibia 61.4179
rfoot 5.28828 -21.0213
rtoes 21.9256
lfemur -36.0286 7.68864 0.975843
ltibia 48.5435
lfoot 9.1081 -2.91481
ltoes 2.91432
4545
root 28.6511 28.0928 -4.05727 -37.6177 -9.66184 -9.1832
lowerback 38.6764 -0.76107 4.0945
upperback 16.8861 0.238501 -0.844961
thorax -0.137363 0.32356 -3.07789
lowerneck 21.9313 -9.39965 -20.6714
upperneck 3.89179 -16.8982 7.83491
head 0.243391 -8.94573 6.19769
rclavicle -1.15295e-014 4.77083e-015
rhumerus 46.9683 -24.1979 -63.3253
rradius 111.736
rwrist 2.64496
rhand -28.0738 -34.576
rfingers 7.12502
rthumb -1.45722 -64.5508
lclavicle -1.15295e-014 4.77083e-015
lhumerus 42.1665 44.9174 35.9112
lradius 92.9635
lwrist 46.1496
lhand -12.8911 -8.02445
lfingers 7.12502
lthumb 13.1982 21.5378
rfemur -31.3451 -10.7473 32.2745
rtibia 62.55
rfoot 5.77873 -21.0127
rtoes 20.0366
lfemur -36.0432 7.62304 0.809165
ltibia 48.7247
lfoot 9.48361 -2.84644
ltoes 4.9529
4546
root 28.6501 28.0945 -4.06509 -37.6707 -9.55667 -9.16488
lowerback 38.6895 -0.795592 4.07987
upperback 17.0026 0.181901 -1.01685
thorax -0.0176841 0.308749 -3.23335
lowerneck 23.8655 -9.04625 -20.3638
upperneck 1.7161 -16.7217 8.59834
head -0.685168 -8.81288 6.61467
rclavicle -5.1684e-015 1.90833e-014
rhumerus 47.3402 -24.4642 -61.7465
rradius 109.783
rwrist 1.64817
rhand -30.0471 -34.3
rfingers 7.12502
rthumb -3.3629 -64.2533
lclavicle -5.1684e-015 1.90833e-014
lhumerus 42.3568 44.7681 35.6257
lradius 92.7349
lwrist 47.7002
lhand -12.5039 -8.98647
lfingers 7.12502
lthumb 13.5714 20.5512
rfemur -31.3496 -10.9815 32.2399
rtibia 63.7471
rfoot 6.12321 -20.9285
rtoes 19.1788
lfemur -36.0232 7.64851 0.692055
ltibia 48.9084
lfoot 9.79335 -3.03932
ltoes 6.73351
4547
root 28.6501 28.0934 -4.07017 -37.72 -9.47967 -9.13325
lowerback 38.4806 -0.830341 4.06393
upperback 17.3193 0.109069 -1.21342
thorax 0.231825 0.291558 -3.4168
lowerneck 22.6771 -9.25757 -20.2198
upperneck 3.15809 -16.7434 8.27328
head -0.110865 -8.85961 6.35833
rclavicle 1.19271e-015 7.95139e-015
rhumerus 47.234 -24.4995 -63.843
rradius 111.762
rwrist 2.2534
rhand -29.5716 -33.1813
rfingers 7.12502
rthumb -2.90378 -63.1413
lclavicle 1.19271e-015 7.95139e-015
lhumerus 42.6992 44.7618 35.3925
lradius 92.6483
lwrist 49.2261
lhand -12.3559 -10.3089
lfingers 7.12502
lthumb 13.7141 19.2192
rfemur -31.3625 -11.31 32.1842
rtibia 64.9804
rfoot 6.21275 -21.0949
rtoes 20.123
lfemur -35.9506 7.649 0.593417
ltibia 49.1168
lfoot 9.97586 -3.30445
ltoes 6.70601
4548
root 28.6506 28.0963 -4.07775 -37.8838 -9.17333 -8.7529
lowerback 38.4395 -0.720712 3.56226
upperback 17.5508 0.0651781 -1.34354
thorax 0.486786 0.251391 -3.27968
lowerneck 23.1163 -9.09905 -20.3955
upperneck 2.60656 -16.6542 8.69845
head -0.306476 -8.81799 6.56464
rclavicle 2.0276e-014 1.74931e-014
rhumerus 48.0427 -24.3046 -66.6992
rradius 112.96
rwrist 3.42348
rhand -28.4576 -31.7521
rfingers 7.12502
rthumb -1.82787 -61.724
lclavicle 2.0276e-014 1.74931e-014
lhumerus 42.9604 44.8217 35.3179
lradius 92.708
lwrist 50.632
lhand -12.5292 -10.5886
lfingers 7.12502
lthumb 13.547 18.9507
rfemur -31.309 -11.7096 31.62
rtibia 66.2263
rfoot 6.35897 -21.2025
rtoes 20.7043
lfemur -35.7269 7.52209 0.042536
ltibia 49.3432
lfoot 10.0113 -3.63125
ltoes 5.35922
